<svg width="38" height="36" viewBox="0 0 38 36" fill="none" xmlns="http://www.w3.org/2000/svg">
<path d="M26.0439 10.9566H32.2951C32.5289 10.9549 32.7578 11.0288 32.9516 11.1685C33.1454 11.3082 33.2951 11.5071 33.3809 11.7392L35.4353 17.2174" stroke="#E1B168" stroke-width="2" stroke-linecap="round" stroke-linejoin="round"/>
<path d="M2.56543 20.3479H26.0438" stroke="#E1B168" stroke-width="2" stroke-linecap="round" stroke-linejoin="round"/>
<path d="M28.0003 30.5218C29.9453 30.5218 31.522 28.945 31.522 27C31.522 25.055 29.9453 23.4783 28.0003 23.4783C26.0553 23.4783 24.4785 25.055 24.4785 27C24.4785 28.945 26.0553 30.5218 28.0003 30.5218Z" stroke="#E1B168" stroke-width="2" stroke-linecap="round" stroke-linejoin="round"/>
<path d="M10.0003 30.5218C11.9453 30.5218 13.522 28.945 13.522 27C13.522 25.055 11.9453 23.4783 10.0003 23.4783C8.05526 23.4783 6.47852 25.055 6.47852 27C6.47852 28.945 8.05526 30.5218 10.0003 30.5218Z" stroke="#E1B168" stroke-width="2" stroke-linecap="round" stroke-linejoin="round"/>
<path d="M24.479 26.6086H13.5225" stroke="#E1B168" stroke-width="2" stroke-linecap="round" stroke-linejoin="round"/>
<path d="M6.08718 26.6087H3.73935C3.42801 26.6087 3.12941 26.4902 2.90926 26.2792C2.68911 26.0682 2.56543 25.7821 2.56543 25.4837V9.73365C2.56543 9.43528 2.68911 9.14913 2.90926 8.93815C3.12941 8.72717 3.42801 8.60864 3.73935 8.60864H26.0438V23.6837" stroke="#E1B168" stroke-width="2" stroke-linecap="round" stroke-linejoin="round"/>
<path d="M26.0439 17.2173H35.4353V25.5652C35.4353 25.8419 35.3116 26.1073 35.0915 26.303C34.8713 26.4987 34.5727 26.6086 34.2614 26.6086H32.3048" stroke="#E1B168" stroke-width="2" stroke-linecap="round" stroke-linejoin="round"/>
</svg>
