<svg width="117" height="18" viewBox="0 0 117 18" fill="none" xmlns="http://www.w3.org/2000/svg">
<path d="M14.1744 17.3215C14.0481 17.322 13.9249 17.2833 13.8223 17.2108L8.99906 13.7705L4.17585 17.2108C4.0728 17.2844 3.94866 17.3238 3.82136 17.3233C3.69407 17.3228 3.57022 17.2826 3.46772 17.2083C3.36522 17.134 3.28938 17.0296 3.25117 16.9102C3.21296 16.7907 3.21436 16.6624 3.25515 16.5437L5.13629 11.0618L0.260942 7.77229C0.155339 7.70111 0.0756353 7.59858 0.0334775 7.47967C-0.00868039 7.36075 -0.0110835 7.23169 0.0266195 7.11134C0.0643224 6.99098 0.140155 6.88565 0.243038 6.81072C0.345922 6.73579 0.470463 6.69519 0.598466 6.69486H6.61314L8.42827 1.19888C8.46738 1.08022 8.54367 0.976798 8.64622 0.903448C8.74876 0.830098 8.87228 0.790588 8.99906 0.790588C9.12585 0.790588 9.24937 0.830098 9.35191 0.903448C9.45446 0.976798 9.53075 1.08022 9.56985 1.19888L11.385 6.69671H17.3997C17.5278 6.69664 17.6526 6.73696 17.7558 6.81174C17.859 6.88653 17.9352 6.99186 17.9731 7.1123C18.011 7.23275 18.0088 7.36198 17.9667 7.48108C17.9246 7.60017 17.8448 7.70287 17.7391 7.77413L12.8618 11.0618L14.7418 16.5422C14.7723 16.631 14.7809 16.7256 14.7668 16.8182C14.7528 16.9108 14.7166 16.9988 14.6611 17.075C14.6057 17.1511 14.5327 17.2132 14.448 17.256C14.3634 17.2989 14.2696 17.3214 14.1744 17.3215Z" fill="#E1B168"/>
<path d="M39.1744 17.3215C39.0481 17.322 38.9249 17.2833 38.8223 17.2108L33.9991 13.7705L29.1758 17.2108C29.0728 17.2844 28.9487 17.3238 28.8214 17.3233C28.6941 17.3229 28.5702 17.2826 28.4677 17.2083C28.3652 17.134 28.2894 17.0296 28.2512 16.9102C28.213 16.7907 28.2144 16.6624 28.2552 16.5437L30.1363 11.0618L25.2609 7.77229C25.1553 7.70111 25.0756 7.59858 25.0335 7.47967C24.9913 7.36075 24.9889 7.23169 25.0266 7.11134C25.0643 6.99098 25.1402 6.88565 25.243 6.81072C25.3459 6.73579 25.4705 6.69519 25.5985 6.69486H31.6131L33.4283 1.19888C33.4674 1.08022 33.5437 0.976798 33.6462 0.903448C33.7488 0.830098 33.8723 0.790588 33.9991 0.790588C34.1258 0.790588 34.2494 0.830098 34.3519 0.903448C34.4545 0.976798 34.5308 1.08022 34.5699 1.19888L36.385 6.69671H42.3997C42.5278 6.69664 42.6526 6.73696 42.7558 6.81174C42.859 6.88653 42.9352 6.99186 42.9731 7.1123C43.011 7.23275 43.0088 7.36198 42.9667 7.48108C42.9246 7.60017 42.8448 7.70287 42.7391 7.77413L37.8618 11.0618L39.7418 16.5422C39.7723 16.631 39.7809 16.7256 39.7668 16.8182C39.7528 16.9108 39.7166 16.9988 39.6611 17.075C39.6057 17.1511 39.5327 17.2132 39.448 17.256C39.3634 17.2989 39.2696 17.3214 39.1744 17.3215Z" fill="#E1B168"/>
<path d="M63.1744 17.3215C63.0481 17.322 62.9249 17.2833 62.8223 17.2108L57.9991 13.7705L53.1758 17.2108C53.0728 17.2844 52.9487 17.3238 52.8214 17.3233C52.6941 17.3228 52.5702 17.2826 52.4677 17.2083C52.3652 17.134 52.2894 17.0296 52.2512 16.9102C52.213 16.7907 52.2144 16.6624 52.2552 16.5437L54.1363 11.0618L49.2609 7.77229C49.1553 7.70111 49.0756 7.59858 49.0335 7.47967C48.9913 7.36075 48.9889 7.23169 49.0266 7.11134C49.0643 6.99098 49.1402 6.88565 49.243 6.81072C49.3459 6.73579 49.4705 6.69519 49.5985 6.69486H55.6131L57.4283 1.19888C57.4674 1.08022 57.5437 0.976798 57.6462 0.903448C57.7488 0.830098 57.8723 0.790588 57.9991 0.790588C58.1258 0.790588 58.2494 0.830098 58.3519 0.903448C58.4545 0.976798 58.5308 1.08022 58.5699 1.19888L60.385 6.69671H66.3997C66.5278 6.69664 66.6526 6.73696 66.7558 6.81174C66.859 6.88653 66.9352 6.99186 66.9731 7.1123C67.011 7.23275 67.0088 7.36198 66.9667 7.48108C66.9246 7.60017 66.8448 7.70287 66.7391 7.77413L61.8618 11.0618L63.7418 16.5422C63.7723 16.631 63.7809 16.7256 63.7668 16.8182C63.7528 16.9108 63.7166 16.9988 63.6611 17.075C63.6057 17.1511 63.5327 17.2132 63.448 17.256C63.3634 17.2989 63.2696 17.3214 63.1744 17.3215Z" fill="#E1B168"/>
<path d="M88.1744 17.3215C88.0481 17.322 87.9249 17.2833 87.8223 17.2108L82.9991 13.7705L78.1758 17.2108C78.0728 17.2844 77.9487 17.3238 77.8214 17.3233C77.6941 17.3228 77.5702 17.2826 77.4677 17.2083C77.3652 17.134 77.2894 17.0296 77.2512 16.9102C77.213 16.7907 77.2144 16.6624 77.2552 16.5437L79.1363 11.0618L74.2609 7.77229C74.1553 7.70111 74.0756 7.59858 74.0335 7.47967C73.9913 7.36075 73.9889 7.23169 74.0266 7.11134C74.0643 6.99098 74.1402 6.88565 74.243 6.81072C74.3459 6.73579 74.4705 6.69519 74.5985 6.69486H80.6131L82.4283 1.19888C82.4674 1.08022 82.5437 0.976798 82.6462 0.903448C82.7488 0.830098 82.8723 0.790588 82.9991 0.790588C83.1258 0.790588 83.2494 0.830098 83.3519 0.903448C83.4545 0.976798 83.5308 1.08022 83.5699 1.19888L85.385 6.69671H91.3997C91.5278 6.69664 91.6526 6.73696 91.7558 6.81174C91.859 6.88653 91.9352 6.99186 91.9731 7.1123C92.011 7.23275 92.0088 7.36198 91.9667 7.48108C91.9246 7.60017 91.8448 7.70287 91.7391 7.77413L86.8618 11.0618L88.7418 16.5422C88.7723 16.631 88.7809 16.7256 88.7668 16.8182C88.7528 16.9108 88.7166 16.9988 88.6611 17.075C88.6057 17.1511 88.5327 17.2132 88.448 17.256C88.3634 17.2989 88.2696 17.3214 88.1744 17.3215Z" fill="#E1B168"/>
<path d="M113.174 17.3215C113.048 17.322 112.925 17.2833 112.822 17.2108L107.999 13.7705L103.176 17.2108C103.073 17.2844 102.949 17.3238 102.821 17.3233C102.694 17.3229 102.57 17.2826 102.468 17.2083C102.365 17.134 102.289 17.0296 102.251 16.9102C102.213 16.7907 102.214 16.6624 102.255 16.5437L104.136 11.0618L99.2609 7.77229C99.1553 7.70111 99.0756 7.59858 99.0335 7.47967C98.9913 7.36075 98.9889 7.23169 99.0266 7.11134C99.0643 6.99098 99.1402 6.88565 99.243 6.81072C99.3459 6.73579 99.4705 6.69519 99.5985 6.69486H105.613L107.428 1.19888C107.467 1.08022 107.544 0.976798 107.646 0.903448C107.749 0.830098 107.872 0.790588 107.999 0.790588C108.126 0.790588 108.249 0.830098 108.352 0.903448C108.454 0.976798 108.531 1.08022 108.57 1.19888L110.385 6.69671H116.4C116.528 6.69664 116.653 6.73696 116.756 6.81174C116.859 6.88653 116.935 6.99186 116.973 7.1123C117.011 7.23275 117.009 7.36198 116.967 7.48108C116.925 7.60017 116.845 7.70287 116.739 7.77413L111.862 11.0618L113.742 16.5422C113.772 16.631 113.781 16.7256 113.767 16.8182C113.753 16.9108 113.717 16.9988 113.661 17.075C113.606 17.1511 113.533 17.2132 113.448 17.256C113.363 17.2989 113.27 17.3214 113.174 17.3215Z" fill="#E1B168"/>
</svg>
